<svg width="34" height="34" viewBox="0 0 34 34" fill="none" xmlns="http://www.w3.org/2000/svg">
<g clip-path="url(#clip0_1_1282)">
<path d="M11.688 6.18758C13.3586 6.18768 14.9889 6.70158 16.3577 7.65935C17.7266 8.61725 18.7675 9.97333 19.34 11.543C19.9124 13.1126 19.9884 14.8201 19.5576 16.4343C19.1267 18.0486 18.2097 19.4918 16.9311 20.5674L16.5008 20.9291L17.0136 21.1607C19.1195 22.1137 20.9316 23.6139 22.2617 25.5045L22.2666 25.5114L22.2726 25.5184C22.3759 25.6507 22.4514 25.8032 22.4942 25.9656C22.537 26.1279 22.5457 26.2974 22.521 26.4634C22.4964 26.6295 22.4382 26.7886 22.3501 26.9315C22.262 27.0744 22.1465 27.1986 22.0092 27.2952C21.8721 27.3918 21.7162 27.4592 21.5521 27.494C21.3879 27.5287 21.2179 27.5297 21.0532 27.497C20.8885 27.4642 20.7316 27.3982 20.5931 27.3032H20.5941C20.4557 27.2081 20.3371 27.0863 20.2473 26.9444L20.2433 26.9375L20.2384 26.9305L20.0535 26.6761C19.1132 25.419 17.9011 24.3882 16.5058 23.663C15.0176 22.8896 13.3651 22.4855 11.688 22.4854C10.0107 22.4854 8.35747 22.8895 6.86918 23.663C5.38084 24.4366 4.10043 25.5577 3.13658 26.9305L3.13559 26.9315C3.02231 27.0941 2.87112 27.2266 2.69535 27.3181C2.51949 27.4096 2.32416 27.4578 2.12592 27.4572H2.12393C1.86964 27.458 1.62127 27.3785 1.41438 27.2306L1.41239 27.2296L1.316 27.1541C1.10079 26.9678 0.955695 26.7116 0.906566 26.4287C0.857465 26.1457 0.907852 25.8558 1.04768 25.6078L1.11327 25.5045C2.44337 23.6139 4.25539 22.1137 6.36136 21.1607L6.87415 20.9291L6.44385 20.5674C5.16528 19.4918 4.24823 18.0486 3.81731 16.4343C3.38649 14.8201 3.46255 13.1126 4.03495 11.543C4.60739 9.97333 5.64832 8.61725 7.01725 7.65935C8.38618 6.70149 10.0172 6.18758 11.688 6.18758ZM22.5111 6.19752H22.5131C24.1848 6.19274 25.8176 6.70406 27.1888 7.66034C28.5599 8.61668 29.603 9.97263 30.176 11.543C30.749 13.1132 30.8245 14.8218 30.3917 16.4363C29.9587 18.051 29.0381 19.4934 27.7562 20.5664L27.3239 20.9282L27.8377 21.1607C29.9437 22.1137 31.7557 23.6139 33.0858 25.5045L33.0878 25.5064C33.1822 25.6385 33.2494 25.7884 33.2855 25.9467C33.3217 26.1051 33.3262 26.2696 33.2985 26.4297C33.2707 26.5898 33.211 26.7429 33.1236 26.8798C33.0361 27.0168 32.9222 27.135 32.7887 27.2277L32.7847 27.2306C32.5778 27.3785 32.3294 27.457 32.0751 27.4562C31.8766 27.4549 31.6808 27.4068 31.5047 27.3151C31.3284 27.2233 31.1765 27.0907 31.0615 26.9285C30.0957 25.5587 28.8153 24.4404 27.3279 23.668C25.9331 22.9437 24.3943 22.5431 22.8261 22.4943L22.5121 22.4894L22.3889 22.4834C22.1053 22.4552 21.8389 22.3298 21.6356 22.1266C21.4031 21.8942 21.2719 21.5789 21.2719 21.2501C21.2719 20.9214 21.4031 20.6061 21.6356 20.3736C21.868 20.1413 22.1834 20.0109 22.5121 20.0109C24.0148 20.0108 25.4564 19.4129 26.519 18.3503C27.5814 17.2876 28.1786 15.8462 28.1786 14.3434C28.1785 12.8407 27.5816 11.3992 26.519 10.3366C25.5226 9.34019 24.1931 8.75333 22.7923 8.68392L22.5121 8.67697C21.994 8.67602 21.4779 8.74751 20.9797 8.88964L20.8565 8.92044C20.7359 8.94369 20.6123 8.94848 20.4898 8.93535C20.3263 8.91784 20.1677 8.86856 20.0237 8.78926C19.8798 8.71004 19.7532 8.60285 19.651 8.47424C19.5488 8.34546 19.473 8.19723 19.4284 8.03897C19.3839 7.88072 19.3716 7.71519 19.3917 7.55202C19.4117 7.38891 19.4642 7.23165 19.5457 7.08893C19.6272 6.94616 19.7363 6.82043 19.8667 6.72024C19.997 6.62016 20.1461 6.54662 20.3049 6.50459L20.3109 6.5036C21.0265 6.29988 21.7671 6.19628 22.5111 6.19752ZM12.793 8.78628C11.6938 8.56763 10.554 8.67937 9.51857 9.10826C8.48326 9.53716 7.59812 10.2634 6.97551 11.1952C6.35291 12.127 6.02057 13.2228 6.0205 14.3434C6.0205 15.8461 6.61765 17.2876 7.68009 18.3503C8.7428 19.413 10.1851 20.0109 11.688 20.0109C12.8083 20.0108 13.9036 19.6782 14.8352 19.0559C15.7671 18.4332 16.4942 17.5473 16.9231 16.5118C17.3518 15.4766 17.4637 14.3374 17.2451 13.2384C17.0265 12.1392 16.4873 11.129 15.6948 10.3366C14.9024 9.54409 13.8922 9.00495 12.793 8.78628Z" fill="#4FC5C2" stroke="#4FC5C2" stroke-width="0.696069"/>
</g>
<defs>
<clipPath id="clip0_1_1282">
<rect width="33.4113" height="33.4113" fill="white" transform="scale(1.01762)"/>
</clipPath>
</defs>
</svg>
