<svg width="23" height="23" viewBox="0 0 23 23" fill="none" xmlns="http://www.w3.org/2000/svg">
<path opacity="0.1" fill-rule="evenodd" clip-rule="evenodd" d="M0 11.4999C0 5.14868 5.14868 0 11.4999 0C17.8511 0 22.9998 5.14868 22.9998 11.4999C22.9998 17.8511 17.8511 22.9998 11.4999 22.9998C5.14868 22.9998 0 17.8511 0 11.4999Z" fill="white"/>
<path fill-rule="evenodd" clip-rule="evenodd" d="M11.1553 9.34725L11.1794 9.74517L10.7772 9.69644C9.31321 9.50966 8.03423 8.87624 6.9483 7.8124L6.4174 7.28455L6.28065 7.67435C5.99107 8.54328 6.17608 9.46094 6.77937 10.0781C7.10113 10.4192 7.02873 10.4679 6.4737 10.2649C6.28065 10.1999 6.11173 10.1512 6.09564 10.1756C6.03933 10.2324 6.23238 10.9714 6.38522 11.2638C6.59436 11.6698 7.02069 12.0677 7.48724 12.3032L7.88139 12.49L7.41484 12.4981C6.96438 12.4981 6.9483 12.5063 6.99656 12.6768C7.15744 13.2047 7.79291 13.765 8.50078 14.0086L8.9995 14.1792L8.56513 14.439C7.92161 14.8126 7.16548 15.0237 6.40935 15.04C6.04737 15.0481 5.74975 15.0806 5.74975 15.1049C5.74975 15.1862 6.73111 15.6409 7.30223 15.8196C9.01559 16.3474 11.0507 16.1201 12.5791 15.2186C13.665 14.5771 14.7509 13.3021 15.2577 12.0677C15.5312 11.4099 15.8047 10.2081 15.8047 9.63148C15.8047 9.25792 15.8288 9.20919 16.2793 8.76254C16.5447 8.50268 16.7941 8.21845 16.8423 8.13724C16.9228 7.98294 16.9147 7.98294 16.5045 8.121C15.8208 8.36462 15.7242 8.33214 16.0621 7.9667C16.3114 7.70683 16.6091 7.23582 16.6091 7.09777C16.6091 7.0734 16.4884 7.11401 16.3517 7.1871C16.2069 7.26831 15.8851 7.39012 15.6438 7.46321L15.2094 7.60126L14.8153 7.33327C14.5981 7.1871 14.2924 7.02468 14.1315 6.97595C13.7213 6.86226 13.0939 6.8785 12.7238 7.00844C11.7184 7.37388 11.0829 8.3159 11.1553 9.34725Z" fill="white"/>
</svg>
