<svg width="23" height="23" viewBox="0 0 23 23" fill="none" xmlns="http://www.w3.org/2000/svg">
<path opacity="0.1" fill-rule="evenodd" clip-rule="evenodd" d="M0 11.4999C0 5.14868 5.14868 0 11.4999 0C17.8511 0 22.9998 5.14868 22.9998 11.4999C22.9998 17.8511 17.8511 22.9998 11.4999 22.9998C5.14868 22.9998 0 17.8511 0 11.4999Z" fill="white"/>
<path fill-rule="evenodd" clip-rule="evenodd" d="M11.5004 5.36663C9.83471 5.36663 9.62566 5.37391 8.97144 5.40368C8.31849 5.43358 7.8728 5.53696 7.48283 5.68863C7.07943 5.84529 6.73724 6.05484 6.39633 6.39588C6.05516 6.73679 5.84561 7.07898 5.68844 7.48225C5.53638 7.87236 5.43288 8.31817 5.40349 8.97086C5.37423 9.62509 5.36657 9.83426 5.36657 11.5C5.36657 13.1657 5.37398 13.3741 5.40362 14.0283C5.43365 14.6813 5.53702 15.127 5.68857 15.5169C5.84535 15.9203 6.05491 16.2625 6.39595 16.6034C6.73673 16.9446 7.07892 17.1547 7.48206 17.3113C7.87229 17.463 8.31811 17.5664 8.97093 17.5963C9.62515 17.626 9.83407 17.6333 11.4997 17.6333C13.1655 17.6333 13.3739 17.626 14.0281 17.5963C14.6811 17.5664 15.1273 17.463 15.5175 17.3113C15.9208 17.1547 16.2625 16.9446 16.6032 16.6034C16.9444 16.2625 17.154 15.9203 17.3111 15.5171C17.4619 15.127 17.5654 14.6811 17.5961 14.0284C17.6255 13.3742 17.6331 13.1657 17.6331 11.5C17.6331 9.83426 17.6255 9.62521 17.5961 8.97099C17.5654 8.31805 17.4619 7.87236 17.3111 7.48238C17.154 7.07898 16.9444 6.73679 16.6032 6.39588C16.2621 6.05471 15.9209 5.84516 15.5171 5.68863C15.1261 5.53696 14.6802 5.43358 14.0272 5.40368C13.373 5.37391 13.1647 5.36663 11.4985 5.36663H11.5004ZM10.9502 6.47189C11.1135 6.47164 11.2957 6.47189 11.5004 6.47189C13.138 6.47189 13.3321 6.47777 13.9788 6.50716C14.5768 6.5345 14.9013 6.63443 15.1175 6.71838C15.4038 6.82954 15.6078 6.96243 15.8224 7.1771C16.037 7.39177 16.1699 7.59621 16.2813 7.88243C16.3653 8.09838 16.4653 8.42293 16.4926 9.02094C16.5219 9.66749 16.5283 9.86171 16.5283 11.4986C16.5283 13.1354 16.5219 13.3296 16.4926 13.9762C16.4652 14.5742 16.3653 14.8987 16.2813 15.1147C16.1702 15.4009 16.037 15.6047 15.8224 15.8192C15.6077 16.0339 15.4039 16.1668 15.1175 16.278C14.9016 16.3623 14.5768 16.462 13.9788 16.4893C13.3322 16.5187 13.138 16.5251 11.5004 16.5251C9.86266 16.5251 9.66857 16.5187 9.02201 16.4893C8.42401 16.4617 8.09946 16.3618 7.88313 16.2778C7.5969 16.1667 7.39246 16.0338 7.17779 15.8191C6.96313 15.6044 6.83024 15.4005 6.71881 15.1142C6.63486 14.8982 6.53481 14.5737 6.5076 13.9757C6.47821 13.3291 6.47233 13.1349 6.47233 11.497C6.47233 9.85916 6.47821 9.66596 6.5076 9.0194C6.53494 8.4214 6.63486 8.09684 6.71881 7.88064C6.82998 7.59442 6.96313 7.38998 7.17779 7.17531C7.39246 6.96064 7.5969 6.82775 7.88313 6.71633C8.09933 6.632 8.42401 6.53233 9.02201 6.50486C9.58781 6.4793 9.80708 6.47164 10.9502 6.47036V6.47189ZM14.7743 7.49028C14.368 7.49028 14.0383 7.81957 14.0383 8.22603C14.0383 8.63236 14.368 8.96203 14.7743 8.96203C15.1807 8.96203 15.5103 8.63236 15.5103 8.22603C15.5103 7.8197 15.1807 7.49028 14.7743 7.49028ZM11.5004 8.35023C9.76099 8.35023 8.3507 9.76051 8.3507 11.5C8.3507 13.2394 9.76099 14.649 11.5004 14.649C13.2399 14.649 14.6496 13.2394 14.6496 11.5C14.6496 9.76051 13.2399 8.35023 11.5004 8.35023ZM11.5004 9.45551C12.6295 9.45551 13.5449 10.3708 13.5449 11.5C13.5449 12.629 12.6295 13.5444 11.5004 13.5444C10.3712 13.5444 9.45596 12.629 9.45596 11.5C9.45596 10.3708 10.3712 9.45551 11.5004 9.45551Z" fill="white"/>
</svg>
