<svg width="13" height="13" viewBox="0 0 13 13" fill="none" xmlns="http://www.w3.org/2000/svg">
<path fill-rule="evenodd" clip-rule="evenodd" d="M12.2996 0.700311C12.4467 0.847447 12.4965 1.06586 12.4278 1.26226L8.63614 12.0956C8.56278 12.3052 8.36888 12.4488 8.14697 12.4578C7.92506 12.4669 7.72011 12.3396 7.62991 12.1366L5.54786 7.452L0.863259 5.36996C0.660308 5.27976 0.532982 5.07481 0.542035 4.8529C0.551088 4.63099 0.694686 4.43709 0.90431 4.36372L11.7376 0.572071C11.934 0.50333 12.1524 0.553174 12.2996 0.700311ZM6.6043 7.1616L8.06498 10.4481L10.6212 3.14473L6.6043 7.1616ZM9.85514 2.3787L2.55174 4.93489L5.83827 6.39557L9.85514 2.3787Z" fill="white"/>
</svg>
