<svg width="23" height="23" viewBox="0 0 23 23" fill="none" xmlns="http://www.w3.org/2000/svg">
<path opacity="0.1" fill-rule="evenodd" clip-rule="evenodd" d="M0 11.4999C0 5.14868 5.14868 0 11.4999 0C17.8511 0 22.9998 5.14868 22.9998 11.4999C22.9998 17.8511 17.8511 22.9998 11.4999 22.9998C5.14868 22.9998 0 17.8511 0 11.4999Z" fill="white"/>
<path fill-rule="evenodd" clip-rule="evenodd" d="M16.2922 7.54645C16.8201 7.69128 17.2357 8.11804 17.3768 8.65997C17.6331 9.64217 17.6331 11.6915 17.6331 11.6915C17.6331 11.6915 17.6331 13.7408 17.3768 14.7231C17.2357 15.265 16.8201 15.6918 16.2922 15.8367C15.3357 16.0998 11.4998 16.0998 11.4998 16.0998C11.4998 16.0998 7.66397 16.0998 6.70738 15.8367C6.17957 15.6918 5.7639 15.265 5.62284 14.7231C5.36657 13.7408 5.36657 11.6915 5.36657 11.6915C5.36657 11.6915 5.36657 9.64217 5.62284 8.65997C5.7639 8.11804 6.17957 7.69128 6.70738 7.54645C7.66397 7.28323 11.4998 7.28323 11.4998 7.28323C11.4998 7.28323 15.3357 7.28323 16.2922 7.54645ZM10.3499 9.9665V13.7998L13.4165 11.8832L10.3499 9.9665Z" fill="white"/>
</svg>
