<svg width="34" height="34" viewBox="0 0 34 34" fill="none" xmlns="http://www.w3.org/2000/svg">
<path d="M6.906 5.66634H27.0934C28.2674 5.66634 29.3935 6.13314 30.2237 6.9632C31.0539 7.79339 31.5206 8.91952 31.5206 10.0936V23.9059C31.5206 25.0801 31.054 26.2061 30.2237 27.0363C29.3935 27.8665 28.2675 28.3332 27.0934 28.3332H6.906C5.73195 28.3331 4.60582 27.8665 3.77563 27.0363C2.94557 26.2061 2.47877 25.0799 2.47877 23.9059V10.0936C2.47883 8.91952 2.94545 7.79338 3.77563 6.9632C4.60582 6.13302 5.73195 5.6664 6.906 5.66634ZM3.89588 23.9059C3.89588 24.7042 4.21297 25.47 4.77735 26.0346C5.34186 26.5991 6.10767 26.917 6.906 26.917H27.0934C27.8918 26.917 28.6575 26.5991 29.222 26.0346C29.7866 25.47 30.1045 24.7043 30.1045 23.9059V13.4585H3.89588V23.9059ZM22.3124 20.542H25.5004C25.6881 20.5421 25.8685 20.616 26.0012 20.7487C26.134 20.8815 26.2078 21.0619 26.2079 21.2496C26.2079 21.4373 26.1338 21.6177 26.0012 21.7505C25.8685 21.8832 25.6881 21.958 25.5004 21.9582H22.3124C22.1245 21.9581 21.9443 21.8833 21.8115 21.7505C21.6788 21.6176 21.6038 21.4373 21.6038 21.2496C21.6039 21.0619 21.6788 20.8815 21.8115 20.7487C21.9443 20.616 22.1246 20.5421 22.3124 20.542ZM6.906 7.08345C6.10767 7.08351 5.34186 7.40041 4.77735 7.96492C4.21284 8.52943 3.89594 9.29524 3.89588 10.0936V12.0414H30.1045V10.0936C30.1044 9.29524 29.7865 8.52943 29.222 7.96492C28.6575 7.40053 27.8917 7.08345 27.0934 7.08345H6.906Z" fill="#4FC5C2" stroke="#4FC5C2" stroke-width="0.696069"/>
</svg>
