<svg width="22" height="22" viewBox="0 0 22 22" fill="none" xmlns="http://www.w3.org/2000/svg">
<path d="M9.2985 6.07528C10.0196 4.2777 10.3801 3.37891 11 3.37891C11.62 3.37891 11.9805 4.2777 12.7016 6.07528L12.7352 6.15899C13.1425 7.17453 13.3462 7.6823 13.7613 7.99094C14.1764 8.29957 14.7214 8.34837 15.8112 8.44597L16.0082 8.46362C17.7919 8.62336 18.6837 8.70323 18.8745 9.27063C19.0654 9.83803 18.4031 10.4406 17.0784 11.6457L16.6363 12.0479C15.9658 12.658 15.6305 12.963 15.4743 13.3628C15.4451 13.4374 15.4209 13.5138 15.4017 13.5915C15.299 14.0083 15.3972 14.4508 15.5935 15.3358L15.6547 15.6113C16.0155 17.2378 16.196 18.051 15.8809 18.4018C15.7632 18.5329 15.6102 18.6272 15.4402 18.6736C14.9854 18.7977 14.3396 18.2715 13.0481 17.2191C12.2 16.528 11.776 16.1825 11.2891 16.1048C11.0976 16.0742 10.9025 16.0742 10.711 16.1048C10.2241 16.1825 9.8001 16.528 8.95202 17.2191C7.66048 18.2715 7.01471 18.7977 6.55986 18.6736C6.3899 18.6272 6.2369 18.5329 6.11917 18.4018C5.80413 18.051 5.98457 17.2378 6.34544 15.6113L6.40656 15.3358C6.60291 14.4508 6.70109 14.0083 6.59838 13.5915C6.57922 13.5138 6.55498 13.4374 6.52583 13.3628C6.36956 12.963 6.03429 12.658 5.36374 12.0479L4.92165 11.6457C3.59703 10.4406 2.93472 9.83803 3.12555 9.27063C3.31638 8.70323 4.20821 8.62336 5.99187 8.46362L6.1889 8.44597C7.27874 8.34837 7.82366 8.29957 8.23877 7.99094C8.65388 7.6823 8.85756 7.17453 9.26492 6.15898L9.2985 6.07528Z" fill="#ECBA0B" stroke="#ECBA0B" stroke-width="1.46069"/>
</svg>
