<svg width="34" height="34" viewBox="0 0 34 34" fill="none" xmlns="http://www.w3.org/2000/svg">
<mask id="path-1-inside-1_1_1288" fill="white">
<path d="M20.054 16.7483C19.8834 16.7483 19.7251 16.7014 19.5844 16.626V16.628C19.5844 16.8964 19.4801 17.1484 19.2908 17.3371C19.1016 17.5264 18.8498 17.6307 18.5817 17.6307C18.4087 17.6307 18.2483 17.5826 18.1061 17.5052C18.0918 17.7506 17.9936 17.9801 17.8186 18.1553C17.6293 18.3446 17.3775 18.4489 17.1093 18.4489C16.5764 18.4489 16.1437 18.03 16.1125 17.505C15.9477 17.5941 15.7612 17.6408 15.569 17.6285C15.0448 17.5941 14.6343 17.1412 14.6343 16.5971V12.0874L14.1208 12.9771C13.9252 13.3173 13.5591 13.5286 13.1649 13.5286C12.9728 13.5286 12.783 13.4782 12.615 13.3819C12.4057 13.2606 12.256 13.0658 12.1938 12.8329C12.1312 12.5997 12.1636 12.3559 12.2846 12.147C12.2847 12.147 13.9647 9.23768 14.0672 9.05898C14.0794 9.03211 14.1141 8.95418 14.1436 8.88776C14.1718 8.82434 14.196 8.75926 14.2192 8.69384C14.7259 7.26352 15.9804 6.37503 17.4933 6.37503C19.458 6.37503 21.0564 8.10825 21.0564 10.2387L21.0566 15.7455C21.0566 16.0136 20.9524 16.2654 20.7633 16.4548C20.5741 16.6441 20.3223 16.7484 20.0539 16.7484L20.054 16.7483ZM17.4933 6.9078C16.1933 6.9078 15.1571 7.6421 14.7214 8.87202C14.6935 8.95012 14.6645 9.02822 14.6306 9.10432C14.5323 9.32477 14.5323 9.32477 14.5046 9.35647L14.501 9.3533C14.3638 9.61214 13.9563 10.3179 12.7459 12.4136C12.6961 12.4995 12.6829 12.5993 12.7083 12.6948C12.734 12.7902 12.7956 12.8707 12.8809 12.9199C13.1455 13.0719 13.508 12.9738 13.6589 12.711L14.67 10.9604C14.7304 10.8561 14.8526 10.8048 14.9697 10.8365C15.0862 10.8677 15.1672 10.9734 15.1672 11.0939V16.5973C15.1672 16.857 15.3631 17.0811 15.6039 17.0969C15.7427 17.1043 15.8722 17.0577 15.9695 16.9606C16.058 16.8721 16.1067 16.7543 16.1067 16.6283V13.029C16.1067 12.8818 16.226 12.7625 16.3732 12.7625C16.5204 12.7625 16.6397 12.8817 16.6397 13.029L16.6396 17.4464C16.6396 17.7054 16.8503 17.9162 17.1093 17.9162C17.2352 17.9162 17.3533 17.8675 17.4419 17.779C17.5304 17.6904 17.5791 17.5723 17.5791 17.4464V13.029C17.5791 12.8818 17.6983 12.7625 17.8456 12.7625C17.9928 12.7625 18.1121 12.8816 18.1121 13.029L18.112 16.5869V16.6283C18.112 16.8871 18.3227 17.0979 18.5819 17.0979C18.7076 17.0979 18.8254 17.049 18.9145 16.9602C19.003 16.8719 19.0517 16.7541 19.0517 16.6281V13.0288C19.0517 12.8816 19.1708 12.7623 19.3182 12.7623C19.4654 12.7623 19.5847 12.8815 19.5847 13.0288L19.5844 15.7457C19.5844 16.0048 19.7951 16.2156 20.054 16.2156C20.18 16.2156 20.2978 16.1667 20.3862 16.0784C20.475 15.9897 20.5236 15.8715 20.5236 15.7457L20.5237 10.2388C20.5237 8.40231 19.1643 6.90785 17.4933 6.90785L17.4933 6.9078Z"/>
</mask>
<path d="M20.054 16.7483C19.8834 16.7483 19.7251 16.7014 19.5844 16.626V16.628C19.5844 16.8964 19.4801 17.1484 19.2908 17.3371C19.1016 17.5264 18.8498 17.6307 18.5817 17.6307C18.4087 17.6307 18.2483 17.5826 18.1061 17.5052C18.0918 17.7506 17.9936 17.9801 17.8186 18.1553C17.6293 18.3446 17.3775 18.4489 17.1093 18.4489C16.5764 18.4489 16.1437 18.03 16.1125 17.505C15.9477 17.5941 15.7612 17.6408 15.569 17.6285C15.0448 17.5941 14.6343 17.1412 14.6343 16.5971V12.0874L14.1208 12.9771C13.9252 13.3173 13.5591 13.5286 13.1649 13.5286C12.9728 13.5286 12.783 13.4782 12.615 13.3819C12.4057 13.2606 12.256 13.0658 12.1938 12.8329C12.1312 12.5997 12.1636 12.3559 12.2846 12.147C12.2847 12.147 13.9647 9.23768 14.0672 9.05898C14.0794 9.03211 14.1141 8.95418 14.1436 8.88776C14.1718 8.82434 14.196 8.75926 14.2192 8.69384C14.7259 7.26352 15.9804 6.37503 17.4933 6.37503C19.458 6.37503 21.0564 8.10825 21.0564 10.2387L21.0566 15.7455C21.0566 16.0136 20.9524 16.2654 20.7633 16.4548C20.5741 16.6441 20.3223 16.7484 20.0539 16.7484L20.054 16.7483ZM17.4933 6.9078C16.1933 6.9078 15.1571 7.6421 14.7214 8.87202C14.6935 8.95012 14.6645 9.02822 14.6306 9.10432C14.5323 9.32477 14.5323 9.32477 14.5046 9.35647L14.501 9.3533C14.3638 9.61214 13.9563 10.3179 12.7459 12.4136C12.6961 12.4995 12.6829 12.5993 12.7083 12.6948C12.734 12.7902 12.7956 12.8707 12.8809 12.9199C13.1455 13.0719 13.508 12.9738 13.6589 12.711L14.67 10.9604C14.7304 10.8561 14.8526 10.8048 14.9697 10.8365C15.0862 10.8677 15.1672 10.9734 15.1672 11.0939V16.5973C15.1672 16.857 15.3631 17.0811 15.6039 17.0969C15.7427 17.1043 15.8722 17.0577 15.9695 16.9606C16.058 16.8721 16.1067 16.7543 16.1067 16.6283V13.029C16.1067 12.8818 16.226 12.7625 16.3732 12.7625C16.5204 12.7625 16.6397 12.8817 16.6397 13.029L16.6396 17.4464C16.6396 17.7054 16.8503 17.9162 17.1093 17.9162C17.2352 17.9162 17.3533 17.8675 17.4419 17.779C17.5304 17.6904 17.5791 17.5723 17.5791 17.4464V13.029C17.5791 12.8818 17.6983 12.7625 17.8456 12.7625C17.9928 12.7625 18.1121 12.8816 18.1121 13.029L18.112 16.5869V16.6283C18.112 16.8871 18.3227 17.0979 18.5819 17.0979C18.7076 17.0979 18.8254 17.049 18.9145 16.9602C19.003 16.8719 19.0517 16.7541 19.0517 16.6281V13.0288C19.0517 12.8816 19.1708 12.7623 19.3182 12.7623C19.4654 12.7623 19.5847 12.8815 19.5847 13.0288L19.5844 15.7457C19.5844 16.0048 19.7951 16.2156 20.054 16.2156C20.18 16.2156 20.2978 16.1667 20.3862 16.0784C20.475 15.9897 20.5236 15.8715 20.5236 15.7457L20.5237 10.2388C20.5237 8.40231 19.1643 6.90785 17.4933 6.90785L17.4933 6.9078Z" fill="#4FC5C2"/>
<path d="M20.054 16.7483V15.8039H23.3907L20.549 17.5527L20.054 16.7483ZM19.5844 16.626H18.6399V15.0479L20.0307 15.7937L19.5844 16.626ZM19.2908 17.3371L18.623 16.6693L18.6239 16.6684L19.2908 17.3371ZM18.1061 17.5052L17.1633 17.45L17.2502 15.9636L18.5578 16.6757L18.1061 17.5052ZM17.8186 18.1553L18.4868 18.8228L18.4864 18.8232L17.8186 18.1553ZM16.1125 17.505L15.6635 16.6741L16.9674 15.9694L17.0553 17.449L16.1125 17.505ZM15.569 17.6285L15.5084 18.571L15.5072 18.5709L15.569 17.6285ZM14.6343 12.0874L13.8163 11.6153L15.5787 8.56201V12.0874H14.6343ZM14.1208 12.9771L13.3019 12.5064L13.3028 12.5049L14.1208 12.9771ZM12.615 13.3819L12.1454 14.2014L12.1413 14.199L12.615 13.3819ZM12.1938 12.8329L13.1059 12.588L13.1062 12.5891L12.1938 12.8329ZM12.2846 12.147L11.4672 11.6737L11.7401 11.2025H12.2846V12.147ZM14.0672 9.05898L14.9274 9.44899L14.9088 9.48989L14.8865 9.52884L14.0672 9.05898ZM14.1436 8.88776L13.2807 8.50399L13.2807 8.50398L14.1436 8.88776ZM14.2192 8.69384L15.1095 9.00918L15.1094 9.00943L14.2192 8.69384ZM21.0564 10.2387L20.1119 10.2387V10.2387H21.0564ZM21.0566 15.7455L22.001 15.7455V15.7455H21.0566ZM20.7633 16.4548L21.4318 17.122L21.4312 17.1226L20.7633 16.4548ZM20.0539 16.7484V17.6928H16.7172L19.559 15.944L20.0539 16.7484ZM17.4933 6.9078V5.96335H18.7454L18.4014 7.16726L17.4933 6.9078ZM14.7214 8.87202L15.6116 9.1874L15.6109 9.18943L14.7214 8.87202ZM14.6306 9.10432L15.4934 9.48842L15.4932 9.48892L14.6306 9.10432ZM14.5046 9.35647L15.2158 9.97789L14.598 10.685L13.8873 10.0713L14.5046 9.35647ZM14.501 9.3533L13.6665 8.91104L14.2214 7.86395L15.1183 8.63852L14.501 9.3533ZM12.7459 12.4136L13.5637 12.8859L13.5633 12.8866L12.7459 12.4136ZM12.7083 12.6948L11.7963 12.9403L11.7956 12.9374L12.7083 12.6948ZM12.8809 12.9199L12.4105 13.7389L12.4087 13.7378L12.8809 12.9199ZM13.6589 12.711L12.8398 12.2409L12.8411 12.2386L13.6589 12.711ZM14.67 10.9604L13.8522 10.488L13.8528 10.487L14.67 10.9604ZM14.9697 10.8365L14.7253 11.7488L14.723 11.7482L14.9697 10.8365ZM15.6039 17.0969L15.554 18.0401L15.5419 18.0393L15.6039 17.0969ZM15.9695 16.9606L16.6374 17.6284L16.6368 17.629L15.9695 16.9606ZM16.6397 13.029H17.5842V13.029L16.6397 13.029ZM16.6396 17.4464H15.6951V17.4464L16.6396 17.4464ZM17.4419 17.779L18.1104 18.4462L18.1091 18.4475L17.4419 17.779ZM18.1121 13.029H19.0566V13.029L18.1121 13.029ZM18.112 16.5869H17.1675V16.5869L18.112 16.5869ZM18.9145 16.9602L19.5817 17.6287L19.5811 17.6293L18.9145 16.9602ZM19.5847 13.0288H20.5291V13.0289L19.5847 13.0288ZM19.5844 15.7457H18.6399V15.7455L19.5844 15.7457ZM20.3862 16.0784L21.0541 16.7463L21.0534 16.7469L20.3862 16.0784ZM20.5236 15.7457H19.5791V15.7456L20.5236 15.7457ZM20.5237 10.2388H21.4682V10.2389L20.5237 10.2388ZM17.4933 6.90785V7.8523H16.2412L16.5852 6.64839L17.4933 6.90785ZM20.054 16.7483V17.6928C19.7062 17.6928 19.3957 17.5965 19.1381 17.4583L19.5844 16.626L20.0307 15.7937C20.0429 15.8002 20.0506 15.8027 20.0537 15.8035C20.0564 15.8043 20.056 15.8039 20.054 15.8039V16.7483ZM19.5844 16.626H20.5288V16.628H19.5844H18.6399V16.626H19.5844ZM19.5844 16.628H20.5288C20.5288 17.1461 20.3255 17.639 19.9578 18.0058L19.2908 17.3371L18.6239 16.6684C18.6306 16.6617 18.634 16.6559 18.6359 16.6512C18.6379 16.6464 18.6399 16.6392 18.6399 16.628H19.5844ZM19.2908 17.3371L19.9587 18.0049C19.5922 18.3714 19.1001 18.5751 18.5817 18.5751V17.6307V16.6862C18.5926 16.6862 18.5997 16.6842 18.6046 16.6822C18.6094 16.6802 18.6156 16.6767 18.623 16.6693L19.2908 17.3371ZM18.5817 17.6307V18.5751C18.2294 18.5751 17.9151 18.4765 17.6544 18.3346L18.1061 17.5052L18.5578 16.6757C18.5701 16.6824 18.5779 16.685 18.581 16.6858C18.5836 16.6865 18.5834 16.6862 18.5817 16.6862V17.6307ZM18.1061 17.5052L19.049 17.5603C19.0218 18.0251 18.8332 18.476 18.4868 18.8228L17.8186 18.1553L17.1504 17.4879C17.1539 17.4844 17.1559 17.4813 17.1577 17.4774C17.1595 17.4731 17.1624 17.4645 17.1633 17.45L18.1061 17.5052ZM17.8186 18.1553L18.4864 18.8232C18.1198 19.1897 17.6277 19.3933 17.1093 19.3933V18.4489V17.5044C17.1203 17.5044 17.1275 17.5024 17.1323 17.5004C17.1372 17.4984 17.1434 17.4949 17.1508 17.4875L17.8186 18.1553ZM17.1093 18.4489V19.3933C16.0666 19.3933 15.23 18.575 15.1697 17.561L16.1125 17.505L17.0553 17.449C17.0563 17.4651 17.0628 17.4791 17.0745 17.4902C17.0801 17.4956 17.0859 17.4991 17.0909 17.5012C17.0953 17.503 17.1009 17.5044 17.1093 17.5044V18.4489ZM16.1125 17.505L16.5616 18.3358C16.2565 18.5007 15.8948 18.5958 15.5084 18.571L15.569 17.6285L15.6295 16.686C15.6295 16.686 15.6316 16.6862 15.6365 16.685C15.6419 16.6838 15.6511 16.6808 15.6635 16.6741L16.1125 17.505ZM15.569 17.6285L15.5072 18.5709C14.4585 18.5021 13.6898 17.6103 13.6898 16.5971H14.6343H15.5787C15.5787 16.6291 15.5903 16.6537 15.6048 16.6697C15.619 16.6853 15.6286 16.6859 15.6308 16.6861L15.569 17.6285ZM14.6343 16.5971H13.6898V12.0874H14.6343H15.5787V16.5971H14.6343ZM14.6343 12.0874L15.4522 12.5596L14.9387 13.4492L14.1208 12.9771L13.3028 12.5049L13.8163 11.6153L14.6343 12.0874ZM14.1208 12.9771L14.9396 13.4477C14.5746 14.0826 13.8953 14.473 13.1649 14.473V13.5286V12.5842C13.2228 12.5842 13.2757 12.552 13.3019 12.5064L14.1208 12.9771ZM13.1649 13.5286V14.473C12.8077 14.473 12.4561 14.3794 12.1454 14.2014L12.615 13.3819L13.0845 12.5625C13.1099 12.577 13.1378 12.5842 13.1649 12.5842V13.5286ZM12.615 13.3819L12.1413 14.199C11.7173 13.9532 11.4086 13.5531 11.2813 13.0766L12.1938 12.8329L13.1062 12.5891C13.1054 12.5858 13.103 12.5801 13.0985 12.5742C13.0939 12.5683 13.0898 12.5655 13.0887 12.5648L12.615 13.3819ZM12.1938 12.8329L11.2816 13.0777C11.1538 12.6016 11.2207 12.0994 11.4672 11.6737L12.2846 12.147L13.1019 12.6202C13.1032 12.6179 13.1056 12.6125 13.1066 12.6049C13.1076 12.5972 13.1068 12.5911 13.1059 12.588L12.1938 12.8329ZM12.2846 12.147V11.2025C11.8213 11.3239 11.4745 11.6614 11.4719 11.6657C11.4711 11.6672 11.4698 11.6694 11.4694 11.6701C11.4691 11.6705 11.4687 11.6712 11.4686 11.6714C11.4685 11.6715 11.4683 11.6718 11.4683 11.6719C11.4682 11.6721 11.4682 11.6721 11.4686 11.6714C11.4692 11.6703 11.4703 11.6685 11.4718 11.6658C11.4749 11.6604 11.4796 11.6523 11.4858 11.6417C11.4981 11.6204 11.5161 11.5891 11.5392 11.5492C11.5853 11.4693 11.6513 11.355 11.7309 11.2173C11.89 10.9418 12.1032 10.5725 12.3196 10.1977C12.7531 9.44688 13.1976 8.6769 13.2479 8.58912L14.0672 9.05898L14.8865 9.52884C14.8343 9.61977 14.3876 10.3938 13.9554 11.1422C13.739 11.5171 13.5258 11.8863 13.3666 12.1619C13.287 12.2997 13.221 12.4141 13.1748 12.494C13.1517 12.534 13.1336 12.5654 13.1212 12.5868C13.115 12.5975 13.1102 12.6058 13.107 12.6114C13.1053 12.6142 13.104 12.6165 13.103 12.6182C13.1026 12.619 13.102 12.62 13.1015 12.6209C13.1013 12.6213 13.1006 12.6223 13.0999 12.6236C13.0995 12.6244 13.0981 12.6266 13.0972 12.6281C13.0946 12.6325 12.7478 12.97 12.2846 13.0914V12.147ZM14.0672 9.05898L13.2071 8.66897C13.2175 8.64604 13.2504 8.57211 13.2807 8.50399L14.1436 8.88776L15.0066 9.27153C14.9778 9.33624 14.9413 9.41818 14.9274 9.44899L14.0672 9.05898ZM14.1436 8.88776L13.2807 8.50398C13.2938 8.47446 13.3083 8.43675 13.3291 8.37825L14.2192 8.69384L15.1094 9.00943C15.0837 9.08177 15.0499 9.17422 15.0066 9.27154L14.1436 8.88776ZM14.2192 8.69384L13.329 8.37851C13.9687 6.57262 15.5787 5.43059 17.4933 5.43059V6.37503V7.31948C16.382 7.31948 15.4831 7.95441 15.1095 9.00918L14.2192 8.69384ZM17.4933 6.37503V5.43059C20.0502 5.43059 22.0008 7.66013 22.0008 10.2387H21.0564H20.1119C20.1119 8.55638 18.8658 7.31948 17.4933 7.31948V6.37503ZM21.0564 10.2387L22.0008 10.2387L22.001 15.7455L21.0566 15.7455L20.1121 15.7456L20.1119 10.2387L21.0564 10.2387ZM21.0566 15.7455H22.001C22.001 16.2634 21.7978 16.7553 21.4318 17.122L20.7633 16.4548L20.0949 15.7876C20.1024 15.7801 20.106 15.7738 20.1081 15.7688C20.1101 15.7638 20.1121 15.7565 20.1121 15.7455H21.0566ZM20.7633 16.4548L21.4312 17.1226C21.0645 17.4893 20.5724 17.6928 20.0539 17.6928V16.7484V15.8039C20.0651 15.8039 20.0723 15.8019 20.0771 15.7999C20.0819 15.7979 20.0882 15.7944 20.0955 15.787L20.7633 16.4548ZM20.0539 16.7484L19.559 15.944L19.559 15.944L20.054 16.7483L20.549 17.5527L20.5489 17.5527L20.0539 16.7484ZM17.4933 6.9078V7.85224C16.5954 7.85224 15.9145 8.3326 15.6116 9.1874L14.7214 8.87202L13.8312 8.55664C14.3998 6.9516 15.7912 5.96335 17.4933 5.96335V6.9078ZM14.7214 8.87202L15.6109 9.18943C15.5811 9.27298 15.5424 9.37849 15.4934 9.48842L14.6306 9.10432L13.7678 8.72021C13.7866 8.67795 13.806 8.62726 13.8319 8.5546L14.7214 8.87202ZM14.6306 9.10432L15.4932 9.48892C15.45 9.58592 15.4137 9.66784 15.386 9.72333C15.3688 9.75777 15.3409 9.81084 15.3005 9.86963C15.2596 9.9292 15.2191 9.97412 15.2158 9.97789L14.5046 9.35647L13.7934 8.73506C13.7956 8.73252 13.7949 8.73335 13.7938 8.73465C13.7923 8.73632 13.7887 8.7406 13.7839 8.74647C13.7789 8.75256 13.7726 8.76041 13.7655 8.76975C13.7584 8.77917 13.7511 8.7892 13.7438 8.79977C13.729 8.8213 13.7176 8.84016 13.7095 8.85442C13.702 8.86773 13.6973 8.87695 13.6963 8.87902C13.6952 8.88117 13.6959 8.87991 13.6991 8.87304C13.7022 8.86638 13.7066 8.85679 13.7129 8.84283C13.7192 8.829 13.7267 8.81229 13.7359 8.79164C13.7452 8.77102 13.7557 8.7474 13.768 8.71971L14.6306 9.10432ZM14.5046 9.35647L13.8873 10.0713L13.8837 10.0681L14.501 9.3533L15.1183 8.63852L15.1219 8.6417L14.5046 9.35647ZM14.501 9.3533L15.3355 9.79556C15.1876 10.0745 14.7657 10.8048 13.5637 12.8859L12.7459 12.4136L11.928 11.9412C13.1469 9.83091 13.5399 9.1498 13.6665 8.91104L14.501 9.3533ZM12.7459 12.4136L13.5633 12.8866C13.6389 12.756 13.6599 12.5985 13.6211 12.4522L12.7083 12.6948L11.7956 12.9374C11.7059 12.6002 11.7534 12.243 11.9284 11.9406L12.7459 12.4136ZM12.7083 12.6948L13.6203 12.4493C13.5814 12.3049 13.4859 12.1787 13.353 12.102L12.8809 12.9199L12.4087 13.7378C12.1053 13.5627 11.8866 13.2756 11.7963 12.9403L12.7083 12.6948ZM12.8809 12.9199L13.3513 12.101C13.2438 12.0392 13.1392 12.0396 13.067 12.059C12.9951 12.0784 12.9029 12.1309 12.8398 12.2409L13.6589 12.711L14.478 13.1811C14.0664 13.8983 13.1257 14.1497 12.4105 13.7389L12.8809 12.9199ZM13.6589 12.711L12.8411 12.2386L13.8522 10.488L14.67 10.9604L15.4878 11.4327L14.4767 13.1833L13.6589 12.711ZM14.67 10.9604L13.8528 10.487C14.1256 10.016 14.6824 9.78033 15.2165 9.9249L14.9697 10.8365L14.723 11.7482C15.0228 11.8293 15.3353 11.6961 15.4873 11.4337L14.67 10.9604ZM14.9697 10.8365L15.2141 9.92426C15.744 10.0662 16.1116 10.5464 16.1116 11.0939H15.1672H14.2227C14.2227 11.4004 14.4285 11.6693 14.7253 11.7488L14.9697 10.8365ZM15.1672 11.0939H16.1116V16.5973H15.1672H14.2227V11.0939H15.1672ZM15.1672 16.5973H16.1116C16.1116 16.4897 16.0717 16.3918 16.0063 16.317C15.9409 16.2422 15.8256 16.165 15.6659 16.1545L15.6039 17.0969L15.5419 18.0393C14.7468 17.987 14.2227 17.2944 14.2227 16.5973H15.1672ZM15.6039 17.0969L15.6538 16.1538C15.5422 16.1479 15.4059 16.1888 15.3023 16.2922L15.9695 16.9606L16.6368 17.629C16.3386 17.9266 15.9433 18.0606 15.554 18.04L15.6039 17.0969ZM15.9695 16.9606L15.3017 16.2928C15.2121 16.3824 15.1623 16.5052 15.1623 16.6283H16.1067H17.0512C17.0512 17.0034 16.9039 17.3619 16.6374 17.6284L15.9695 16.9606ZM16.1067 16.6283H15.1623V13.029H16.1067H17.0512V16.6283H16.1067ZM16.1067 13.029H15.1623C15.1623 12.3602 15.7044 11.8181 16.3732 11.8181V12.7625V13.7069C16.7476 13.7069 17.0512 13.4034 17.0512 13.029H16.1067ZM16.3732 12.7625V11.8181C17.0416 11.8181 17.5842 12.3597 17.5842 13.029H16.6397H15.6953C15.6953 13.4036 15.9992 13.7069 16.3732 13.7069V12.7625ZM16.6397 13.029L17.5842 13.029L17.584 17.4465L16.6396 17.4464L15.6951 17.4464L15.6953 13.029L16.6397 13.029ZM16.6396 17.4464H17.584C17.584 17.1838 17.3719 16.9718 17.1093 16.9718V17.9162V18.8607C16.3287 18.8607 15.6951 18.227 15.6951 17.4464H16.6396ZM17.1093 17.9162V16.9718C16.9864 16.9718 16.8642 17.0213 16.7748 17.1106L17.4419 17.779L18.1091 18.4475C17.8424 18.7137 17.4839 18.8607 17.1093 18.8607V17.9162ZM17.4419 17.779L16.7735 17.1118C16.6842 17.2013 16.6347 17.3235 16.6347 17.4464H17.5791H18.5236C18.5236 17.821 18.3766 18.1795 18.1104 18.4462L17.4419 17.779ZM17.5791 17.4464H16.6347V13.029H17.5791H18.5236V17.4464H17.5791ZM17.5791 13.029H16.6347C16.6347 12.3606 17.1763 11.818 17.8456 11.818V12.7625V13.7069C18.2203 13.7069 18.5236 13.403 18.5236 13.029H17.5791ZM17.8456 12.7625V11.818C18.514 11.818 19.0566 12.3597 19.0566 13.029H18.1121H17.1677C17.1677 13.4036 17.4716 13.7069 17.8456 13.7069V12.7625ZM18.1121 13.029L19.0566 13.029L19.0564 16.587L18.112 16.5869L17.1675 16.5869L17.1677 13.029L18.1121 13.029ZM18.112 16.5869H19.0564V16.6283H18.112H17.1675V16.5869H18.112ZM18.112 16.6283H19.0564C19.0564 16.3651 18.8439 16.1535 18.5819 16.1535V17.0979V18.0423C17.8016 18.0423 17.1675 17.4092 17.1675 16.6283H18.112ZM18.5819 17.0979V16.1535C18.4564 16.1535 18.3349 16.2045 18.2479 16.2911L18.9145 16.9602L19.5811 17.6293C19.3159 17.8935 18.9587 18.0423 18.5819 18.0423V17.0979ZM18.9145 16.9602L18.2473 16.2918C18.157 16.3819 18.1072 16.5052 18.1072 16.6281H19.0517H19.9961C19.9961 17.0031 19.8489 17.3619 19.5817 17.6287L18.9145 16.9602ZM19.0517 16.6281H18.1072V13.0288H19.0517H19.9961V16.6281H19.0517ZM19.0517 13.0288H18.1072C18.1072 12.3604 18.6489 11.8179 19.3182 11.8179V12.7623V13.7068C19.6928 13.7068 19.9961 13.4029 19.9961 13.0288H19.0517ZM19.3182 12.7623V11.8179C19.9866 11.8179 20.5291 12.3595 20.5291 13.0288H19.5847H18.6403C18.6403 13.4034 18.9442 13.7068 19.3182 13.7068V12.7623ZM19.5847 13.0288L20.5291 13.0289L20.5288 15.7458L19.5844 15.7457L18.6399 15.7455L18.6403 13.0287L19.5847 13.0288ZM19.5844 15.7457H20.5288C20.5288 15.4837 20.3172 15.2712 20.054 15.2712V16.2156V17.1601C19.2731 17.1601 18.6399 16.526 18.6399 15.7457H19.5844ZM20.054 16.2156V15.2712C19.9301 15.2712 19.8079 15.3213 19.719 15.41L20.3862 16.0784L21.0534 16.7469C20.7877 17.0121 20.4298 17.1601 20.054 17.1601V16.2156ZM20.3862 16.0784L19.7184 15.4106C19.6285 15.5005 19.5791 15.6233 19.5791 15.7457H20.5236H21.468C21.468 16.1197 21.3215 16.4788 21.0541 16.7463L20.3862 16.0784ZM20.5236 15.7457L19.5791 15.7456L19.5793 10.2388L20.5237 10.2388L21.4682 10.2389L21.468 15.7457L20.5236 15.7457ZM20.5237 10.2388H19.5793C19.5793 8.83784 18.5606 7.8523 17.4933 7.8523V6.90785V5.96341C19.768 5.96341 21.4682 7.96678 21.4682 10.2388H20.5237ZM17.4933 6.90785L16.5852 6.64839L16.5852 6.64834L17.4933 6.9078L18.4014 7.16726L18.4014 7.16731L17.4933 6.90785Z" fill="#4FC5C2" mask="url(#path-1-inside-1_1_1288)"/>
<path d="M8.47325 18.5679L8.42058 18.5401C8.40809 18.5626 8.37303 18.6256 8.3212 18.7189C8.33961 18.7281 8.35825 18.7358 8.37685 18.7428C8.40855 18.6857 8.44032 18.6272 8.47325 18.5679Z" fill="#4FC5C2" stroke="#4FC5C2" stroke-width="0.928093"/>
<mask id="path-4-inside-2_1_1288" fill="white">
<path d="M28.0628 25.9659C27.571 26.7862 26.7621 27.3476 25.785 27.5472C24.8166 27.7446 23.7981 27.5625 22.9166 27.034L18.1942 24.201C17.9644 24.0632 17.8018 23.8442 17.7368 23.5842C17.6722 23.3247 17.7126 23.0552 17.8502 22.8256C17.9362 22.682 18.0567 22.5689 18.1963 22.4853L18.195 22.4845C17.9652 22.3466 17.8027 22.1277 17.7379 21.868C17.6728 21.6083 17.7132 21.3386 17.8511 21.1087C17.9399 20.961 18.0615 20.8455 18.2004 20.7636C17.9988 20.6249 17.8536 20.4235 17.7938 20.1845C17.7288 19.9246 17.7691 19.6551 17.907 19.4255C18.0447 19.1957 18.2638 19.0333 18.5235 18.9684C18.6046 18.948 18.6868 18.938 18.7683 18.938C18.9281 18.9382 19.085 18.9787 19.2292 19.0542C19.238 18.8674 19.2936 18.684 19.4028 18.5267C19.702 18.0949 20.3014 17.9755 20.7684 18.2556L24.6355 20.5753L24.1371 19.6775C23.9458 19.3347 23.9528 18.9118 24.1556 18.5737C24.2544 18.4092 24.3956 18.2725 24.5643 18.1779C24.7029 18.1011 24.8531 18.0647 25.0013 18.0647C25.3196 18.0649 25.6286 18.2328 25.7932 18.53C26.3666 19.5632 27.4486 21.5117 27.5247 21.6477C27.5409 21.6712 27.5898 21.7413 27.6317 21.8009C27.6716 21.8575 27.7146 21.9115 27.7592 21.9653C28.7248 23.1358 28.8412 24.6686 28.0627 25.966L28.0628 25.9659ZM27.348 22.3049C27.295 22.2407 27.2429 22.1751 27.1955 22.1075C27.0513 21.9029 27.0477 21.8975 27.0368 21.844C26.8683 21.5651 26.4571 20.8248 25.3268 18.7885C25.2277 18.6098 25.0024 18.5445 24.823 18.6437C24.7347 18.6931 24.6638 18.762 24.612 18.8483C24.5072 19.023 24.5032 19.2413 24.6022 19.4185L25.5831 21.186C25.6417 21.2914 25.6222 21.4229 25.5356 21.5067C25.4491 21.5906 25.3169 21.6053 25.2131 21.5436L20.4941 18.7126C20.2716 18.5792 19.9784 18.6315 19.8409 18.8301C19.7618 18.9442 19.7366 19.0804 19.7697 19.2134C19.8 19.3349 19.8763 19.4374 19.9843 19.5021C19.9846 19.5023 19.9848 19.5026 19.9851 19.5028L23.0706 21.3538C23.1968 21.4296 23.2376 21.5931 23.1619 21.7195C23.0861 21.8455 22.9227 21.8867 22.7962 21.8107L19.0082 19.5383C18.9007 19.4739 18.7742 19.4549 18.6527 19.4854C18.5309 19.5158 18.4284 19.5919 18.3639 19.6999C18.2991 19.8075 18.2804 19.9338 18.3105 20.0553C18.3408 20.1768 18.4171 20.2794 18.5249 20.3442L19.262 20.7863L22.3128 22.6167C22.4389 22.6924 22.4798 22.856 22.4041 22.9823C22.3283 23.1083 22.1649 23.1493 22.0384 23.0736L18.9523 21.222C18.7303 21.0885 18.4413 21.1609 18.3078 21.3832C18.243 21.491 18.2243 21.6174 18.2544 21.7388C18.2848 21.8603 18.361 21.9628 18.469 22.0277L19.2256 22.4816L21.5551 23.8793C21.6813 23.955 21.7222 24.1186 21.6464 24.2449C21.5707 24.3709 21.4073 24.4123 21.2808 24.3362L18.9513 22.9386C18.8438 22.8741 18.7178 22.8551 18.5957 22.8857C18.4742 22.916 18.3714 22.9921 18.3068 23.0998C18.2422 23.2076 18.2233 23.3341 18.2534 23.4554C18.2838 23.5769 18.36 23.6793 18.468 23.7443L23.1905 26.5772C23.9568 27.037 24.8406 27.1962 25.678 27.0253C26.5067 26.8561 27.1913 26.3826 27.6055 25.6921C28.2749 24.5769 28.1786 23.3107 27.3483 22.3049L27.348 22.3049Z"/>
</mask>
<path d="M28.0628 25.9659C27.571 26.7862 26.7621 27.3476 25.785 27.5472C24.8166 27.7446 23.7981 27.5625 22.9166 27.034L18.1942 24.201C17.9644 24.0632 17.8018 23.8442 17.7368 23.5842C17.6722 23.3247 17.7126 23.0552 17.8502 22.8256C17.9362 22.682 18.0567 22.5689 18.1963 22.4853L18.195 22.4845C17.9652 22.3466 17.8027 22.1277 17.7379 21.868C17.6728 21.6083 17.7132 21.3386 17.8511 21.1087C17.9399 20.961 18.0615 20.8455 18.2004 20.7636C17.9988 20.6249 17.8536 20.4235 17.7938 20.1845C17.7288 19.9246 17.7691 19.6551 17.907 19.4255C18.0447 19.1957 18.2638 19.0333 18.5235 18.9684C18.6046 18.948 18.6868 18.938 18.7683 18.938C18.9281 18.9382 19.085 18.9787 19.2292 19.0542C19.238 18.8674 19.2936 18.684 19.4028 18.5267C19.702 18.0949 20.3014 17.9755 20.7684 18.2556L24.6355 20.5753L24.1371 19.6775C23.9458 19.3347 23.9528 18.9118 24.1556 18.5737C24.2544 18.4092 24.3956 18.2725 24.5643 18.1779C24.7029 18.1011 24.8531 18.0647 25.0013 18.0647C25.3196 18.0649 25.6286 18.2328 25.7932 18.53C26.3666 19.5632 27.4486 21.5117 27.5247 21.6477C27.5409 21.6712 27.5898 21.7413 27.6317 21.8009C27.6716 21.8575 27.7146 21.9115 27.7592 21.9653C28.7248 23.1358 28.8412 24.6686 28.0627 25.966L28.0628 25.9659ZM27.348 22.3049C27.295 22.2407 27.2429 22.1751 27.1955 22.1075C27.0513 21.9029 27.0477 21.8975 27.0368 21.844C26.8683 21.5651 26.4571 20.8248 25.3268 18.7885C25.2277 18.6098 25.0024 18.5445 24.823 18.6437C24.7347 18.6931 24.6638 18.762 24.612 18.8483C24.5072 19.023 24.5032 19.2413 24.6022 19.4185L25.5831 21.186C25.6417 21.2914 25.6222 21.4229 25.5356 21.5067C25.4491 21.5906 25.3169 21.6053 25.2131 21.5436L20.4941 18.7126C20.2716 18.5792 19.9784 18.6315 19.8409 18.8301C19.7618 18.9442 19.7366 19.0804 19.7697 19.2134C19.8 19.3349 19.8763 19.4374 19.9843 19.5021C19.9846 19.5023 19.9848 19.5026 19.9851 19.5028L23.0706 21.3538C23.1968 21.4296 23.2376 21.5931 23.1619 21.7195C23.0861 21.8455 22.9227 21.8867 22.7962 21.8107L19.0082 19.5383C18.9007 19.4739 18.7742 19.4549 18.6527 19.4854C18.5309 19.5158 18.4284 19.5919 18.3639 19.6999C18.2991 19.8075 18.2804 19.9338 18.3105 20.0553C18.3408 20.1768 18.4171 20.2794 18.5249 20.3442L19.262 20.7863L22.3128 22.6167C22.4389 22.6924 22.4798 22.856 22.4041 22.9823C22.3283 23.1083 22.1649 23.1493 22.0384 23.0736L18.9523 21.222C18.7303 21.0885 18.4413 21.1609 18.3078 21.3832C18.243 21.491 18.2243 21.6174 18.2544 21.7388C18.2848 21.8603 18.361 21.9628 18.469 22.0277L19.2256 22.4816L21.5551 23.8793C21.6813 23.955 21.7222 24.1186 21.6464 24.2449C21.5707 24.3709 21.4073 24.4123 21.2808 24.3362L18.9513 22.9386C18.8438 22.8741 18.7178 22.8551 18.5957 22.8857C18.4742 22.916 18.3714 22.9921 18.3068 23.0998C18.2422 23.2076 18.2233 23.3341 18.2534 23.4554C18.2838 23.5769 18.36 23.6793 18.468 23.7443L23.1905 26.5772C23.9568 27.037 24.8406 27.1962 25.678 27.0253C26.5067 26.8561 27.1913 26.3826 27.6055 25.6921C28.2749 24.5769 28.1786 23.3107 27.3483 22.3049L27.348 22.3049Z" fill="#4FC5C2"/>
<path d="M28.0628 25.9659L27.758 25.072L30.199 24.2399L28.8728 26.4516L28.0628 25.9659ZM25.785 27.5472L25.974 28.4725L25.9737 28.4726L25.785 27.5472ZM22.9166 27.034L22.431 27.844L22.4308 27.8439L22.9166 27.034ZM18.1942 24.201L18.68 23.3911L18.68 23.3911L18.1942 24.201ZM17.7368 23.5842L16.8206 23.8135L16.8203 23.8123L17.7368 23.5842ZM17.8502 22.8256L18.6605 23.3108L18.6602 23.3112L17.8502 22.8256ZM18.1963 22.4853L18.6969 21.6844L20.0062 22.5027L18.6814 23.2957L18.1963 22.4853ZM18.195 22.4845L18.6808 21.6745L18.6882 21.679L18.6956 21.6836L18.195 22.4845ZM17.7379 21.868L18.654 21.6384L18.6543 21.6395L17.7379 21.868ZM17.8511 21.1087L17.041 20.6231L17.0416 20.6221L17.8511 21.1087ZM18.2004 20.7636L18.7356 19.9855L19.9554 20.8245L18.6804 21.5769L18.2004 20.7636ZM17.7938 20.1845L18.71 19.955L18.7101 19.9554L17.7938 20.1845ZM17.907 19.4255L18.7171 19.9109L18.7167 19.9116L17.907 19.4255ZM18.5235 18.9684L18.7534 19.8844L18.7525 19.8847L18.5235 18.9684ZM18.7683 18.938V17.9936L18.7693 17.9936L18.7683 18.938ZM19.2292 19.0542L20.1726 19.0989L20.1026 20.577L18.7914 19.891L19.2292 19.0542ZM19.4028 18.5267L20.179 19.0647L20.1788 19.0649L19.4028 18.5267ZM20.7684 18.2556L20.2825 19.0655L20.2824 19.0655L20.7684 18.2556ZM24.6355 20.5753L25.4613 20.1169L27.1719 23.198L24.1497 21.3852L24.6355 20.5753ZM24.1371 19.6775L24.9618 19.2173L24.9628 19.219L24.1371 19.6775ZM24.1556 18.5737L23.3456 18.088L23.3459 18.0875L24.1556 18.5737ZM24.5643 18.1779L24.1023 17.3541L24.1069 17.3516L24.5643 18.1779ZM25.0013 18.0647V17.1203L25.0018 17.1203L25.0013 18.0647ZM25.7932 18.53L24.9674 18.9883L24.9669 18.9874L25.7932 18.53ZM27.5247 21.6477L26.7466 22.183L26.7218 22.1469L26.7005 22.1088L27.5247 21.6477ZM27.6317 21.8009L26.8598 22.3451L26.8591 22.3441L27.6317 21.8009ZM27.7592 21.9653L28.4862 21.3624L28.4877 21.3643L27.7592 21.9653ZM28.0627 25.966L28.3675 26.8599L25.9253 27.6924L27.2529 25.48L28.0627 25.966ZM27.348 22.3049L27.4416 23.2447L26.9405 23.2946L26.6199 22.9064L27.348 22.3049ZM27.1955 22.1075L27.9675 21.5634L27.9688 21.5652L27.1955 22.1075ZM27.0368 21.844L27.8451 21.3554L27.9299 21.4958L27.9625 21.6565L27.0368 21.844ZM25.3268 18.7885L24.501 19.2469L24.5009 19.2466L25.3268 18.7885ZM24.823 18.6437L24.3618 17.8194L24.3662 17.817L24.823 18.6437ZM24.612 18.8483L25.422 19.3339L25.4219 19.3341L24.612 18.8483ZM24.6022 19.4185L25.4268 18.9581L25.428 18.9602L24.6022 19.4185ZM25.5831 21.186L24.7575 21.6445L24.7573 21.6443L25.5831 21.186ZM25.5356 21.5067L24.8776 20.8291L24.879 20.8278L25.5356 21.5067ZM25.2131 21.5436L24.7303 22.3553L24.7273 22.3535L25.2131 21.5436ZM20.4941 18.7126L20.9796 17.9025L20.9799 17.9027L20.4941 18.7126ZM19.8409 18.8301L20.6174 19.3678L20.6172 19.368L19.8409 18.8301ZM19.7697 19.2134L18.8534 19.4425L18.8531 19.4411L19.7697 19.2134ZM19.9843 19.5021L19.5618 20.3468L19.5295 20.3306L19.4985 20.3121L19.9843 19.5021ZM19.9851 19.5028L20.4076 18.6581L20.4399 18.6743L20.471 18.6929L19.9851 19.5028ZM23.0706 21.3538L23.5565 20.5439L23.5568 20.5441L23.0706 21.3538ZM23.1619 21.7195L23.9718 22.2052L23.9713 22.2062L23.1619 21.7195ZM22.7962 21.8107L23.2821 21.0008L23.2823 21.001L22.7962 21.8107ZM19.0082 19.5383L19.4937 18.7282L19.494 18.7284L19.0082 19.5383ZM18.6527 19.4854L18.883 20.4014L18.8812 20.4018L18.6527 19.4854ZM18.3639 19.6999L19.1744 20.1847L19.1732 20.1867L18.3639 19.6999ZM18.3105 20.0553L17.3942 20.2844L17.3936 20.282L18.3105 20.0553ZM18.5249 20.3442L18.0391 21.1541L18.0386 21.1538L18.5249 20.3442ZM19.262 20.7863L19.7478 19.9763L19.7479 19.9764L19.262 20.7863ZM22.3128 22.6167L22.7987 21.8068L22.799 21.807L22.3128 22.6167ZM22.4041 22.9823L23.214 23.4681L23.2134 23.469L22.4041 22.9823ZM22.0384 23.0736L21.5531 23.8838L21.5525 23.8834L22.0384 23.0736ZM18.9523 21.222L18.4664 22.0319L18.4655 22.0313L18.9523 21.222ZM18.3078 21.3832L19.1174 21.8695L19.1174 21.8695L18.3078 21.3832ZM18.2544 21.7388L17.3381 21.9679L17.3375 21.9655L18.2544 21.7388ZM18.469 22.0277L17.9831 22.8376L17.9823 22.8371L18.469 22.0277ZM19.2256 22.4816L19.7115 21.6717L19.7115 21.6718L19.2256 22.4816ZM21.5551 23.8793L22.041 23.0694L22.0414 23.0696L21.5551 23.8793ZM21.6464 24.2449L22.4564 24.7307L22.4558 24.7316L21.6464 24.2449ZM21.2808 24.3362L21.7667 23.5263L21.7676 23.5269L21.2808 24.3362ZM18.9513 22.9386L19.4368 22.1285L19.4372 22.1287L18.9513 22.9386ZM18.5957 22.8857L18.3666 21.9694L18.3666 21.9694L18.5957 22.8857ZM18.3068 23.0998L17.4966 22.6144L17.4969 22.6138L18.3068 23.0998ZM18.2534 23.4554L17.3371 23.6844L17.3366 23.6824L18.2534 23.4554ZM18.468 23.7443L17.9821 24.5542L17.9813 24.5537L18.468 23.7443ZM23.1905 26.5772L23.6763 25.7673L23.6763 25.7674L23.1905 26.5772ZM25.678 27.0253L25.867 27.9506L25.8669 27.9507L25.678 27.0253ZM27.6055 25.6921L26.7956 25.2063L26.7957 25.206L27.6055 25.6921ZM27.3483 22.3049L27.2548 21.3651L27.756 21.3152L28.0767 21.7037L27.3483 22.3049ZM28.0628 25.9659L28.8728 26.4516C28.2383 27.5098 27.198 28.2225 25.974 28.4725L25.785 27.5472L25.596 26.6218C26.3263 26.4727 26.9037 26.0625 27.2528 25.4803L28.0628 25.9659ZM25.785 27.5472L25.9737 28.4726C24.7641 28.7192 23.5061 28.4887 22.431 27.844L22.9166 27.034L23.4023 26.224C24.0901 26.6364 24.8691 26.77 25.5964 26.6218L25.785 27.5472ZM22.9166 27.034L22.4308 27.8439L17.7083 25.0109L18.1942 24.201L18.68 23.3911L23.4025 26.2241L22.9166 27.034ZM18.1942 24.201L17.7083 25.0109C17.2642 24.7445 16.9466 24.317 16.8206 23.8135L17.7368 23.5842L18.6529 23.3549C18.6555 23.3651 18.6591 23.3715 18.6622 23.3758C18.6654 23.38 18.6706 23.3855 18.68 23.3911L18.1942 24.201ZM17.7368 23.5842L16.8203 23.8123C16.6951 23.3096 16.7743 22.7834 17.0402 22.3399L17.8502 22.8256L18.6602 23.3112C18.6546 23.3206 18.6525 23.328 18.6517 23.3335C18.6509 23.3389 18.6508 23.3462 18.6532 23.3561L17.7368 23.5842ZM17.8502 22.8256L17.04 22.3403C17.2151 22.0479 17.4544 21.8287 17.7113 21.6749L18.1963 22.4853L18.6814 23.2957C18.6699 23.3025 18.6638 23.3079 18.6613 23.3103C18.6591 23.3124 18.6594 23.3126 18.6605 23.3108L17.8502 22.8256ZM18.1963 22.4853L17.6958 23.2862L17.6945 23.2853L18.195 22.4845L18.6956 21.6836L18.6969 21.6844L18.1963 22.4853ZM18.195 22.4845L17.7092 23.2944C17.2653 23.0281 16.9472 22.6004 16.8215 22.0964L17.7379 21.868L18.6543 21.6395C18.6567 21.6491 18.6601 21.6551 18.6631 21.6593C18.6662 21.6635 18.6714 21.6689 18.6808 21.6745L18.195 22.4845ZM17.7379 21.868L16.8218 22.0976C16.6955 21.5937 16.775 21.0669 17.041 20.6231L17.8511 21.1087L18.6611 21.5943C18.6553 21.6039 18.6533 21.6113 18.6525 21.6165C18.6517 21.6217 18.6516 21.6287 18.654 21.6384L17.7379 21.868ZM17.8511 21.1087L17.0416 20.6221C17.216 20.332 17.4542 20.1073 17.7204 19.9502L18.2004 20.7636L18.6804 21.5769C18.6742 21.5806 18.6701 21.584 18.6673 21.5867C18.6647 21.5892 18.6626 21.5919 18.6605 21.5953L17.8511 21.1087ZM18.2004 20.7636L17.6651 21.5417C17.2836 21.2793 16.996 20.8871 16.8776 20.4135L17.7938 20.1845L18.7101 19.9554C18.7112 19.9599 18.7127 19.963 18.7151 19.9665C18.7178 19.9703 18.7237 19.9773 18.7356 19.9855L18.2004 20.7636ZM17.7938 20.1845L16.8777 20.414C16.7515 19.9102 16.8308 19.3833 17.0972 18.9394L17.907 19.4255L18.7167 19.9116C18.7111 19.9209 18.7092 19.928 18.7084 19.9331C18.7077 19.9381 18.7075 19.9451 18.71 19.955L17.7938 20.1845ZM17.907 19.4255L17.0968 18.9401C17.3634 18.4952 17.7916 18.1778 18.2944 18.0521L18.5235 18.9684L18.7525 19.8847C18.7424 19.8872 18.7361 19.8907 18.7319 19.8938C18.7277 19.8969 18.7225 19.9019 18.7171 19.9109L17.907 19.4255ZM18.5235 18.9684L18.2935 18.0524C18.45 18.0131 18.6095 17.9936 18.7683 17.9936V18.938V19.8825C18.7642 19.8825 18.7592 19.883 18.7534 19.8844L18.5235 18.9684ZM18.7683 18.938L18.7693 17.9936C19.0901 17.9939 19.396 18.0756 19.667 18.2173L19.2292 19.0542L18.7914 19.891C18.7824 19.8863 18.776 19.8842 18.7724 19.8833C18.769 19.8825 18.7674 19.8825 18.7673 19.8825L18.7683 18.938ZM19.2292 19.0542L18.2858 19.0095C18.3021 18.666 18.4056 18.3072 18.6267 17.9885L19.4028 18.5267L20.1788 19.0649C20.1816 19.0609 20.174 19.0689 20.1726 19.0989L19.2292 19.0542ZM19.4028 18.5267L18.6265 17.9886C19.2247 17.1256 20.3845 16.9239 21.2543 17.4458L20.7684 18.2556L20.2824 19.0655C20.2549 19.049 20.2279 19.0463 20.2067 19.0505C20.1861 19.0546 20.1804 19.0626 20.179 19.0647L19.4028 18.5267ZM20.7684 18.2556L21.2542 17.4457L25.1213 19.7654L24.6355 20.5753L24.1497 21.3852L20.2825 19.0655L20.7684 18.2556ZM24.6355 20.5753L23.8098 21.0337L23.3113 20.1359L24.1371 19.6775L24.9628 19.219L25.4613 20.1169L24.6355 20.5753ZM24.1371 19.6775L23.3123 20.1376C22.9556 19.4983 22.9698 18.7146 23.3456 18.088L24.1556 18.5737L24.9655 19.0594C24.9358 19.109 24.936 19.1711 24.9618 19.2173L24.1371 19.6775ZM24.1556 18.5737L23.3459 18.0875C23.5301 17.7808 23.7917 17.5283 24.1023 17.3541L24.5643 18.1779L25.0262 19.0016C24.9994 19.0166 24.9787 19.0375 24.9653 19.0598L24.1556 18.5737ZM24.5643 18.1779L24.1069 17.3516C24.3895 17.1951 24.6977 17.1203 25.0013 17.1203V18.0647V19.0092C25.0046 19.0092 25.0083 19.0087 25.0123 19.0077C25.0164 19.0067 25.0196 19.0053 25.0217 19.0041L24.5643 18.1779ZM25.0013 18.0647L25.0018 17.1203C25.6472 17.1206 26.281 17.4611 26.6195 18.0726L25.7932 18.53L24.9669 18.9874C24.9683 18.9901 24.9709 18.9936 24.9743 18.9971C24.9776 19.0004 24.981 19.0029 24.984 19.0047C24.9894 19.0077 24.9947 19.0092 25.0008 19.0092L25.0013 18.0647ZM25.7932 18.53L26.619 18.0717C27.193 19.1061 28.2739 21.0524 28.349 21.1866L27.5247 21.6477L26.7005 22.1088C26.6234 21.9709 25.5401 20.0203 24.9674 18.9883L25.7932 18.53ZM27.5247 21.6477L28.3028 21.1124C28.3162 21.1318 28.3628 21.1987 28.4043 21.2577L27.6317 21.8009L26.8591 22.3441C26.8168 22.284 26.7657 22.2107 26.7466 22.183L27.5247 21.6477ZM27.6317 21.8009L28.4036 21.2567C28.4231 21.2844 28.4486 21.3171 28.4862 21.3625L27.7592 21.9653L27.0322 22.5681C26.9807 22.506 26.92 22.4305 26.8598 22.3451L27.6317 21.8009ZM27.7592 21.9653L28.4877 21.3643C29.7068 22.842 29.8578 24.8101 28.8726 26.4519L28.0627 25.966L27.2529 25.48C27.8247 24.5271 27.7428 23.4295 27.0307 22.5663L27.7592 21.9653ZM28.0627 25.966L27.758 25.072L27.758 25.072L28.0628 25.9659L28.3675 26.8599L28.3675 26.8599L28.0627 25.966ZM27.348 22.3049L26.6199 22.9064C26.5602 22.8341 26.4903 22.7468 26.4223 22.6497L27.1955 22.1075L27.9688 21.5652C27.9955 21.6034 28.0298 21.6472 28.0762 21.7034L27.348 22.3049ZM27.1955 22.1075L26.4235 22.6515C26.3641 22.5672 26.3001 22.4776 26.2577 22.4074C26.2294 22.3604 26.1914 22.2918 26.1593 22.2044C26.1281 22.1193 26.1142 22.0465 26.1111 22.0314L27.0368 21.844L27.9625 21.6565C27.9648 21.6683 27.9555 21.6161 27.9325 21.5535C27.9087 21.4886 27.8827 21.4442 27.8746 21.4308C27.8707 21.4244 27.8693 21.4224 27.8722 21.4269C27.8751 21.4312 27.8801 21.4386 27.8886 21.4509C27.9062 21.4764 27.9304 21.5108 27.9675 21.5634L27.1955 22.1075ZM27.0368 21.844L26.2285 22.3325C26.0481 22.034 25.6234 21.269 24.501 19.2469L25.3268 18.7885L26.1526 18.3302C27.2907 20.3807 27.6884 21.0962 27.8451 21.3554L27.0368 21.844ZM25.3268 18.7885L24.5009 19.2466C24.6538 19.5223 25.0019 19.6238 25.2797 19.4703L24.823 18.6437L24.3662 17.817C25.0028 17.4653 25.8015 17.6973 26.1527 18.3304L25.3268 18.7885ZM24.823 18.6437L25.2841 19.4679C25.3396 19.4368 25.389 19.389 25.422 19.3339L24.612 18.8483L23.802 18.3626C23.9385 18.1349 24.1297 17.9493 24.3618 17.8195L24.823 18.6437ZM24.612 18.8483L25.4219 19.3341C25.4896 19.2213 25.4941 19.0787 25.4268 18.9581L24.6022 19.4185L23.7776 19.8789C23.5123 19.4038 23.5249 18.8247 23.8021 18.3625L24.612 18.8483ZM24.6022 19.4185L25.428 18.9602L26.4089 20.7276L25.5831 21.186L24.7573 21.6443L23.7764 19.8768L24.6022 19.4185ZM25.5831 21.186L26.4088 20.7274C26.6747 21.2062 26.5864 21.8043 26.1922 22.1856L25.5356 21.5067L24.879 20.8278C24.658 21.0416 24.6087 21.3767 24.7575 21.6445L25.5831 21.186ZM25.5356 21.5067L26.1935 22.1843C25.7962 22.5701 25.1954 22.6319 24.7303 22.3553L25.2131 21.5436L25.696 20.7319C25.4385 20.5787 25.1021 20.6112 24.8776 20.8291L25.5356 21.5067ZM25.2131 21.5436L24.7273 22.3535L20.0082 19.5225L20.4941 18.7126L20.9799 17.9027L25.699 20.7337L25.2131 21.5436ZM20.4941 18.7126L20.0085 19.5226C20.1007 19.5779 20.2047 19.594 20.3024 19.5765C20.4 19.559 20.5259 19.4998 20.6174 19.3678L19.8409 18.8301L19.0645 18.2924C19.5191 17.6359 20.3834 17.5451 20.9796 17.9025L20.4941 18.7126ZM19.8409 18.8301L20.6172 19.368C20.6909 19.2616 20.7194 19.1193 20.6862 18.9857L19.7697 19.2134L18.8531 19.4411C18.7538 19.0415 18.8327 18.6268 19.0646 18.2921L19.8409 18.8301ZM19.7697 19.2134L20.6859 18.9843C20.655 18.8606 20.575 18.7551 20.47 18.6921L19.9843 19.5021L19.4985 20.3121C19.1776 20.1196 18.9451 19.8091 18.8534 19.4425L19.7697 19.2134ZM19.9843 19.5021L20.4067 18.6574C20.492 18.7001 20.5548 18.7477 20.5945 18.7813C20.6141 18.7978 20.6292 18.812 20.6383 18.8207C20.643 18.8252 20.6467 18.8288 20.6489 18.8311C20.6501 18.8322 20.651 18.8331 20.6516 18.8337C20.6519 18.834 20.6521 18.8342 20.6522 18.8343C20.6523 18.8344 20.6524 18.8345 20.6524 18.8345C20.6524 18.8345 20.6524 18.8345 20.6525 18.8346C20.6525 18.8346 20.6525 18.8346 20.6525 18.8346C20.6525 18.8346 20.6525 18.8346 20.6525 18.8346C20.6528 18.8349 20.6511 18.8332 20.649 18.8312C20.6468 18.829 20.6431 18.8253 20.6385 18.8209C20.6295 18.8122 20.6144 18.7981 20.5949 18.7816C20.5553 18.7481 20.4927 18.7007 20.4076 18.6581L19.9851 19.5028L19.5626 20.3475C19.4773 20.3048 19.4146 20.2572 19.3748 20.2236C19.3553 20.2071 19.3402 20.1929 19.331 20.1841C19.3264 20.1797 19.3227 20.176 19.3204 20.1738C19.3193 20.1727 19.3184 20.1717 19.3178 20.1712C19.3175 20.1709 19.3173 20.1707 19.3171 20.1705C19.3171 20.1704 19.317 20.1704 19.317 20.1704C19.3169 20.1703 19.3169 20.1703 19.3169 20.1703C19.3169 20.1703 19.3169 20.1703 19.3169 20.1703C19.3169 20.1703 19.3169 20.1703 19.3169 20.1703C19.3166 20.17 19.3183 20.1717 19.3203 20.1737C19.3226 20.1759 19.3262 20.1795 19.3308 20.184C19.3399 20.1926 19.355 20.2068 19.3744 20.2232C19.414 20.2567 19.4767 20.3042 19.5618 20.3468L19.9843 19.5021ZM19.9851 19.5028L20.471 18.6929L23.5565 20.5439L23.0706 21.3538L22.5847 22.1637L19.4992 20.3127L19.9851 19.5028ZM23.0706 21.3538L23.5568 20.5441C24.1301 20.8884 24.3157 21.6319 23.9718 22.2052L23.1619 21.7195L22.3519 21.2337C22.1596 21.5543 22.2634 21.9707 22.5844 22.1635L23.0706 21.3538ZM23.1619 21.7195L23.9713 22.2062C23.6278 22.7773 22.8852 22.9657 22.3102 22.6205L22.7962 21.8107L23.2823 21.001C22.9603 20.8077 22.5444 20.9136 22.3525 21.2328L23.1619 21.7195ZM22.7962 21.8107L22.3104 22.6206L18.5223 20.3482L19.0082 19.5383L19.494 18.7284L23.2821 21.0008L22.7962 21.8107ZM19.0082 19.5383L18.5226 20.3484C18.6287 20.412 18.7596 20.4324 18.883 20.4014L18.6527 19.4854L18.4225 18.5695C18.7889 18.4774 19.1727 18.5358 19.4937 18.7282L19.0082 19.5383ZM18.6527 19.4854L18.8812 20.4018C19.0039 20.3712 19.1105 20.2915 19.1744 20.1847L18.3639 19.6999L17.5533 19.2151C17.7464 18.8923 18.058 18.6604 18.4243 18.569L18.6527 19.4854ZM18.3639 19.6999L19.1732 20.1867C19.238 20.0789 19.2569 19.9485 19.2273 19.8286L18.3105 20.0553L17.3936 20.282C17.3039 19.9192 17.3602 19.5361 17.5546 19.213L18.3639 19.6999ZM18.3105 20.0553L19.2267 19.8263C19.1959 19.7032 19.1165 19.5978 19.0112 19.5346L18.5249 20.3442L18.0386 21.1538C17.7177 20.9611 17.4857 20.6504 17.3942 20.2844L18.3105 20.0553ZM18.5249 20.3442L19.0107 19.5342L19.7478 19.9763L19.262 20.7863L18.7763 21.5962L18.0391 21.1541L18.5249 20.3442ZM19.262 20.7863L19.7479 19.9764L22.7987 21.8068L22.3128 22.6167L21.8269 23.4265L18.7761 21.5961L19.262 20.7863ZM22.3128 22.6167L22.799 21.807C23.3723 22.1513 23.5578 22.8948 23.214 23.4681L22.4041 22.9823L21.5941 22.4965C21.4018 22.8172 21.5056 23.2336 21.8266 23.4263L22.3128 22.6167ZM22.4041 22.9823L23.2134 23.469C22.8695 24.0411 22.1269 24.2275 21.5531 23.8838L22.0384 23.0736L22.5237 22.2634C22.2029 22.0712 21.7871 22.1755 21.5947 22.4956L22.4041 22.9823ZM22.0384 23.0736L21.5525 23.8834L18.4664 22.0319L18.9523 21.222L19.4382 20.4121L22.5243 22.2637L22.0384 23.0736ZM18.9523 21.222L18.4655 22.0313C18.6923 22.1677 18.9832 22.093 19.1174 21.8695L18.3078 21.3832L17.4981 20.8969C17.8994 20.2289 18.7684 20.0093 19.4391 20.4127L18.9523 21.222ZM18.3078 21.3832L19.1174 21.8695C19.1818 21.7623 19.2009 21.6321 19.1712 21.5122L18.2544 21.7388L17.3375 21.9655C17.2478 21.6026 17.3043 21.2198 17.4982 20.8969L18.3078 21.3832ZM18.2544 21.7388L19.1706 21.5098C19.1397 21.386 19.0598 21.2809 18.9556 21.2183L18.469 22.0277L17.9823 22.8371C17.6623 22.6447 17.4298 22.3347 17.3381 21.9679L18.2544 21.7388ZM18.469 22.0277L18.9549 21.2178L19.7115 21.6717L19.2256 22.4816L18.7398 23.2915L17.9831 22.8376L18.469 22.0277ZM19.2256 22.4816L19.7115 21.6718L22.041 23.0694L21.5551 23.8793L21.0692 24.6891L18.7397 23.2915L19.2256 22.4816ZM21.5551 23.8793L22.0414 23.0696C22.6147 23.4139 22.8002 24.1574 22.4564 24.7307L21.6464 24.2449L20.8365 23.7591C20.6442 24.0798 20.7479 24.4962 21.0689 24.6889L21.5551 23.8793ZM21.6464 24.2449L22.4558 24.7316C22.1129 25.3019 21.3702 25.4922 20.7939 25.1455L21.2808 24.3362L21.7676 23.5269C21.4443 23.3324 21.0284 23.4399 20.837 23.7582L21.6464 24.2449ZM21.2808 24.3362L20.7949 25.1461L18.4654 23.7484L18.9513 22.9386L19.4372 22.1287L21.7667 23.5263L21.2808 24.3362ZM18.9513 22.9386L18.4657 23.7486C18.5721 23.8124 18.703 23.8323 18.8247 23.8019L18.5957 22.8857L18.3666 21.9694C18.7326 21.8779 19.1155 21.9359 19.4368 22.1285L18.9513 22.9386ZM18.5957 22.8857L18.8247 23.8019C18.9462 23.7715 19.0524 23.6928 19.1166 23.5857L18.3068 23.0998L17.4969 22.6138C17.6904 22.2914 18.0021 22.0605 18.3666 21.9694L18.5957 22.8857ZM18.3068 23.0998L19.117 23.5851C19.1804 23.4792 19.2002 23.3496 19.1702 23.2284L18.2534 23.4554L17.3366 23.6824C17.2465 23.3185 17.304 22.936 17.4966 22.6144L18.3068 23.0998ZM18.2534 23.4554L19.1696 23.2263C19.1387 23.1025 19.0588 22.9975 18.9546 22.9348L18.468 23.7443L17.9813 24.5537C17.6613 24.3612 17.4288 24.0512 17.3371 23.6844L18.2534 23.4554ZM18.468 23.7443L18.9538 22.9344L23.6763 25.7673L23.1905 26.5772L22.7046 27.3871L17.9821 24.5542L18.468 23.7443ZM23.1905 26.5772L23.6763 25.7674C24.2503 26.1117 24.8945 26.2213 25.4892 26.0999L25.678 27.0253L25.8669 27.9507C24.7866 28.1711 23.6633 27.9623 22.7046 27.3871L23.1905 26.5772ZM25.678 27.0253L25.4891 26.0999C26.0732 25.9807 26.5252 25.6571 26.7956 25.2063L27.6055 25.6921L28.4154 26.1779C27.8574 27.1082 26.9403 27.7315 25.867 27.9506L25.678 27.0253ZM27.6055 25.6921L26.7957 25.206C27.2583 24.4354 27.1965 23.6046 26.62 22.9061L27.3483 22.3049L28.0767 21.7037C29.1606 23.0168 29.2914 24.7185 28.4153 26.1781L27.6055 25.6921ZM27.3483 22.3049L27.4419 23.2447L27.4416 23.2447L27.348 22.3049L27.2545 21.3651L27.2548 21.3651L27.3483 22.3049Z" fill="#4FC5C2" mask="url(#path-4-inside-2_1_1288)"/>
</svg>
