<svg width="29" height="25" viewBox="0 0 29 25" fill="none" xmlns="http://www.w3.org/2000/svg">
<path d="M29 18.9904C29 22.3094 26.3094 25 22.9904 25L8.66933 25C7.74738 25 7 24.2526 7 23.3307L7 6.33866C7 4.49477 8.49477 3 10.3387 3L27.3307 3C28.2526 3 29 3.74739 29 4.66933L29 18.9904Z" fill="#E8F5E9"/>
<path d="M10.4956 4.79163C8.9332 4.79163 7.66125 6.19745 7.66125 7.91596C7.66125 9.00311 8.17095 9.96301 8.94064 10.5225C8.01102 10.863 7.20663 11.4992 6.61664 12.3316C6.29046 12.0568 5.92599 11.8359 5.53308 11.6775C6.1289 11.193 6.51825 10.4148 6.51825 9.54016C6.51825 8.08265 5.44197 6.88951 4.11927 6.88951C2.79657 6.88951 1.72028 8.08265 1.72028 9.54016C1.72028 10.4153 2.10996 11.1939 2.70628 11.6784C1.12753 12.3164 0 13.987 0 15.953V17.334C0.000161589 17.4393 0.0386123 17.5402 0.106789 17.6143C0.174965 17.6886 0.267216 17.73 0.363342 17.7297H5.89551C5.90892 17.7313 5.92233 17.7321 5.93574 17.732H15.0558C15.0692 17.7321 15.0828 17.7313 15.096 17.7297H20.6286C20.8275 17.7288 20.9886 17.552 20.989 17.334V15.953C20.989 13.987 19.8635 12.3164 18.2855 11.6782C18.8819 11.1939 19.2715 10.4151 19.2715 9.53998C19.2715 8.08247 18.1953 6.88933 16.8726 6.88933C15.5499 6.88933 14.4736 8.08247 14.4736 9.53998C14.4736 10.4146 14.8631 11.193 15.4589 11.6773C15.0652 11.836 14.7005 12.0577 14.3739 12.3332C13.7842 11.5003 12.9809 10.8632 12.0513 10.5225C12.8208 9.96301 13.3307 9.00311 13.3307 7.91596C13.3307 6.19745 12.0581 4.79163 10.4957 4.79163H10.4956ZM10.4956 5.58434C11.6642 5.58434 12.6062 6.62302 12.6062 7.91596C12.6062 9.19879 11.6789 10.2274 10.5232 10.2439C10.514 10.2439 10.505 10.2424 10.4956 10.2424C10.4862 10.2424 10.4774 10.2439 10.468 10.2439C9.31238 10.2276 8.38565 9.19884 8.38565 7.91596C8.38565 6.62284 9.3269 5.58434 10.4955 5.58434H10.4956ZM4.11931 7.68217C5.04649 7.68217 5.79451 8.50637 5.79451 9.54011C5.79451 10.5669 5.05617 11.3876 4.13771 11.3987C4.13157 11.3987 4.1256 11.398 4.1193 11.398C4.11316 11.398 4.10718 11.3987 4.10088 11.3987C3.18242 11.3876 2.44408 10.5667 2.44408 9.54011C2.44408 8.50641 3.1921 7.68217 4.11928 7.68217H4.11931ZM16.8723 7.68217C17.7995 7.68217 18.5475 8.50637 18.5475 9.54011C18.5475 10.5669 17.8092 11.3876 16.8907 11.3987C16.8846 11.3987 16.8786 11.398 16.8723 11.398C16.8662 11.398 16.8602 11.3987 16.8539 11.3987C15.9354 11.3876 15.1971 10.5667 15.1971 9.54011C15.1971 8.50641 15.9451 7.68217 16.8723 7.68217H16.8723ZM10.4679 11.0365C10.4771 11.0367 10.4862 11.0379 10.4955 11.0379C10.5047 11.0379 10.5138 11.0365 10.5232 11.0365C12.8407 11.0528 14.6954 13.1017 14.6954 15.6664L14.6953 16.939H6.29611V15.6664C6.29611 13.1014 8.15032 11.0528 10.4676 11.0365H10.4679ZM4.0916 12.1923C4.10081 12.1925 4.10985 12.1938 4.11922 12.1938C4.12859 12.1938 4.13748 12.1923 4.14685 12.1923C4.93073 12.1992 5.64611 12.4953 6.21575 12.9905C5.80814 13.7804 5.57241 14.6922 5.57241 15.6667V16.9362H0.723489V15.9529C0.723489 13.8685 2.21986 12.2086 4.09151 12.1922L4.0916 12.1923ZM16.8446 12.1923C16.854 12.1925 16.8629 12.1938 16.8723 12.1938C16.8816 12.1938 16.8905 12.1923 16.8999 12.1923C18.7715 12.2086 20.2679 13.8687 20.2679 15.9531V16.9362H15.4165L15.4163 15.6667C15.4163 14.6927 15.1813 13.7817 14.7744 12.9919C15.3442 12.496 16.0601 12.1992 16.8447 12.1923H16.8446Z" fill="#4FC5C2"/>
</svg>
