<svg width="23" height="23" viewBox="0 0 23 23" fill="none" xmlns="http://www.w3.org/2000/svg">
<path opacity="0.1" fill-rule="evenodd" clip-rule="evenodd" d="M0 11.4999C0 5.14868 5.14868 0 11.4999 0C17.8511 0 22.9998 5.14868 22.9998 11.4999C22.9998 17.8511 17.8511 22.9998 11.4999 22.9998C5.14868 22.9998 0 17.8511 0 11.4999Z" fill="white"/>
<path fill-rule="evenodd" clip-rule="evenodd" d="M17.6331 11.4914C17.6331 11.9062 17.5909 12.3204 17.508 12.7241C17.4271 13.1183 17.3073 13.5053 17.1504 13.8752C16.997 14.2386 16.8069 14.5888 16.5846 14.9153C16.3657 15.2399 16.1135 15.5443 15.8365 15.8218C15.5589 16.0981 15.2534 16.3496 14.929 16.5695C14.6014 16.7901 14.2507 16.98 13.8871 17.1341C13.5167 17.2902 13.1288 17.4098 12.735 17.4905C12.3307 17.5737 11.915 17.6162 11.4996 17.6162C11.0839 17.6162 10.6682 17.5737 10.2645 17.4905C9.87005 17.4098 9.4822 17.2902 9.11203 17.1341C8.74845 16.98 8.39743 16.7901 8.06979 16.5695C7.74544 16.3496 7.43996 16.0981 7.16293 15.8218C6.88561 15.5443 6.63343 15.2399 6.4142 14.9153C6.19317 14.5888 6.00268 14.2386 5.84876 13.8752C5.6918 13.5053 5.57172 13.1183 5.49056 12.7241C5.4085 12.3204 5.36657 11.9062 5.36657 11.4914C5.36657 11.0763 5.40848 10.6612 5.49058 10.2584C5.57175 9.86419 5.69183 9.47661 5.84878 9.10728C6.00271 8.74363 6.1932 8.39314 6.41422 8.06655C6.63345 7.74179 6.88564 7.43792 7.16296 7.16009C7.43999 6.88375 7.74547 6.63286 8.06982 6.41335C8.39746 6.19173 8.74847 6.00185 9.11205 5.84752C9.48223 5.69108 9.87005 5.57118 10.2645 5.49104C10.6682 5.40851 11.0839 5.36663 11.4996 5.36663C11.915 5.36663 12.3307 5.40851 12.735 5.49104C13.1288 5.5712 13.5167 5.69111 13.8871 5.84752C14.2507 6.00183 14.6014 6.19173 14.9291 6.41335C15.2534 6.63286 15.5589 6.88375 15.8365 7.16009C16.1136 7.43792 16.3657 7.74179 16.5847 8.06655C16.8069 8.39314 16.997 8.74366 17.1504 9.10728C17.3073 9.47661 17.4271 9.86419 17.508 10.2584C17.5909 10.6612 17.6331 11.0763 17.6331 11.4914ZM9.26473 6.76055C7.8041 7.4493 6.71395 8.79327 6.37402 10.413C6.5121 10.4142 8.6948 10.4417 11.2096 9.77448C10.3031 8.16612 9.33452 6.85358 9.26473 6.76055ZM11.6436 10.5799C8.94667 11.3861 6.35875 11.3281 6.26592 11.3245C6.2644 11.3807 6.26171 11.4352 6.26171 11.4914C6.26171 12.8351 6.76935 14.06 7.60374 14.9862C7.60194 14.9835 9.03533 12.4442 11.8619 11.5315C11.9302 11.5088 11.9997 11.4884 12.0686 11.4687C11.9371 11.1714 11.7936 10.8736 11.6436 10.5799ZM14.9587 7.56593C14.0365 6.75396 12.8257 6.26144 11.4996 6.26144C11.074 6.26144 10.661 6.31288 10.2653 6.40798C10.3438 6.51326 11.3276 7.81655 12.2234 9.45897C14.1998 8.71911 14.9458 7.58506 14.9587 7.56593ZM12.4256 12.3354C12.4139 12.3392 12.4023 12.3425 12.3909 12.3467C9.30046 13.4225 8.29125 15.5906 8.28033 15.6142C9.16954 16.3048 10.2848 16.7214 11.4996 16.7214C12.2249 16.7214 12.9159 16.5739 13.5445 16.3069C13.4669 15.8499 13.1626 14.2481 12.4256 12.3354ZM14.4265 15.829C15.6026 15.0365 16.4379 13.778 16.6709 12.3204C16.5631 12.2857 15.0976 11.8224 13.407 12.0931C14.094 13.9784 14.3732 15.5138 14.4265 15.829ZM12.6266 10.2383C12.7481 10.4878 12.8659 10.7416 12.9746 10.9967C13.0132 11.0883 13.051 11.178 13.0878 11.2677C14.8871 11.0416 16.6598 11.422 16.7356 11.4375C16.7236 10.1977 16.2795 9.05972 15.5445 8.16883C15.5346 8.18286 14.6946 9.39496 12.6266 10.2383Z" fill="white"/>
</svg>
