<svg width="34" height="34" viewBox="0 0 34 34" fill="none" xmlns="http://www.w3.org/2000/svg">
<path d="M28.3333 29.7499V26.9166C28.3333 25.4137 27.7363 23.9724 26.6736 22.9097C25.6109 21.847 24.1695 21.2499 22.6666 21.2499H21.25C20.8742 21.2499 20.5139 21.1007 20.2482 20.835C19.9826 20.5693 19.8333 20.209 19.8333 19.8333V12.75C19.8333 11.9985 19.5348 11.2778 19.0034 10.7465C18.4721 10.2151 17.7514 9.91663 17 9.91663C16.2485 9.91663 15.5279 10.2151 14.9965 10.7465C14.4651 11.2778 14.1666 11.9985 14.1666 12.75V25.4999L10.7666 20.9666C10.5027 20.6147 10.1605 20.3291 9.76708 20.1324C9.37366 19.9357 8.93984 19.8333 8.49998 19.8333H7.88514C6.65973 19.8333 5.66665 20.8264 5.66665 22.0518C5.66665 22.4541 5.77573 22.8494 5.98256 23.1936L9.91664 29.7499M17 5.66663V4.24997V5.66663ZM25.5 14.1666H26.9166H25.5ZM7.08331 14.1666H8.49998H7.08331ZM10.4026 7.56921L9.40097 6.56763L10.4026 7.56921ZM23.5974 7.56921L24.599 6.56763L23.5974 7.56921Z" fill="#4FC5C2"/>
<path d="M28.3333 29.7499V26.9166C28.3333 25.4137 27.7363 23.9724 26.6736 22.9097C25.6109 21.847 24.1695 21.2499 22.6666 21.2499H21.25C20.8742 21.2499 20.5139 21.1007 20.2482 20.835C19.9826 20.5693 19.8333 20.209 19.8333 19.8333V12.75C19.8333 11.9985 19.5348 11.2778 19.0034 10.7465C18.4721 10.2151 17.7514 9.91663 17 9.91663V9.91663C16.2485 9.91663 15.5279 10.2151 14.9965 10.7465C14.4651 11.2778 14.1666 11.9985 14.1666 12.75V25.4999L10.7666 20.9666C10.5027 20.6147 10.1605 20.3291 9.76708 20.1324C9.37366 19.9357 8.93984 19.8333 8.49998 19.8333H7.88514C6.65973 19.8333 5.66665 20.8264 5.66665 22.0518C5.66665 22.4541 5.77573 22.8494 5.98256 23.1936L9.91664 29.7499M17 5.66663V4.24997M25.5 14.1666H26.9166M7.08331 14.1666H8.49998M10.4026 7.56921L9.40097 6.56763M23.5974 7.56921L24.599 6.56763" stroke="#4FC5C2" stroke-width="1.39214" stroke-linecap="round" stroke-linejoin="round"/>
</svg>
